<svg height="511pt" viewBox="1 -87 511.999 511" width="511pt" xmlns="http://www.w3.org/2000/svg"><g fill-rule="evenodd"><path d="m82.851562 142.59375h419.0625v-105.628906c0-14.503906-11.898437-26.375-26.40625-26.375h-439.015624c-14.535157 0-26.40625 11.871094-26.40625 26.375v105.628906zm0 0" fill="#d675a7"/><path d="m82.851562 142.59375h-72.765624v158.4375c0 14.507812 11.871093 26.378906 26.40625 26.378906h71.949218v-73.410156h-15.671875c-5.441406 0-9.917969-4.476562-9.917969-9.917969zm0 0" fill="#f9f9f9"/><path d="m134.027344 142.59375v101.488281c0 5.441407-4.449219 9.917969-9.890625 9.917969h-15.695313v73.410156h98.382813v-72.589844h-15.699219c-5.441406 0-9.890625-4.476562-9.890625-9.917968v-102.308594zm0 0" fill="#f9f9f9"/><path d="m134.027344 244.082031v-101.488281h-51.175782v101.488281c0 5.441407 4.476563 9.917969 9.917969 9.917969h31.367188c5.441406 0 9.890625-4.476562 9.890625-9.917969zm0 0" fill="#b3b0b5"/><path d="m181.234375 142.59375v102.308594c0 5.441406 4.449219 9.917968 9.890625 9.917968h31.367188c5.441406 0 9.890624-4.476562 9.890624-9.917968v-102.308594zm0 0" fill="#b3b0b5"/><path d="m232.382812 142.59375v102.308594c0 5.441406-4.449218 9.917968-9.890624 9.917968h-15.667969v72.589844h98.355469v-72.589844h-15.671876c-5.46875 0-9.917968-4.476562-9.917968-9.917968v-102.308594zm0 0" fill="#f9f9f9"/><path d="m279.589844 142.59375v102.308594c0 5.441406 4.449218 9.917968 9.917968 9.917968h31.339844c5.441406 0 9.917969-4.476562 9.917969-9.917968v-102.308594zm0 0" fill="#b3b0b5"/><path d="m330.765625 244.90625c0 5.4375-4.476563 9.914062-9.917969 9.914062h-15.671875v72.589844h125.078125v-79.21875h-15.671875c-5.441406 0-9.886719-4.449218-9.886719-9.886718v-95.710938h-73.929687zm0 0" fill="#f9f9f9"/><path d="m430.253906 248.191406v79.21875h45.253906c14.507813 0 26.40625-11.871094 26.40625-26.378906v-158.4375h-46.074218v95.707031c0 5.441407-4.449219 9.890625-9.890625 9.890625zm0 0" fill="#f9f9f9"/><path d="m414.585938 248.191406h31.367187c5.441406 0 9.886719-4.449218 9.886719-9.890625v-95.707031h-51.144532v95.707031c0 5.441407 4.449219 9.890625 9.890626 9.890625zm0 0" fill="#b3b0b5"/><path d="m140.941406 92.273438v-31.394532c0-3.398437-2.804687-6.175781-6.175781-6.175781h-71.125c-3.402344 0-6.175781 2.777344-6.175781 6.175781v31.394532c0 3.398437 2.773437 6.175781 6.175781 6.175781h71.125c3.371094 0 6.175781-2.777344 6.175781-6.175781zm0 0" fill="#bdd9ff"/></g><path d="m237 86.664062h.484375c5.570313 0 10.082031-4.515624 10.082031-10.085937 0-5.574219-4.511718-10.089844-10.082031-10.089844h-.484375c-5.570312 0-10.085938 4.515625-10.085938 10.089844 0 5.570313 4.515626 10.085937 10.085938 10.085937zm0 0"/><path d="m324.898438 32.429688c-5.570313 0-10.082032 4.519531-10.082032 10.089843v8.554688h-5.160156c-5.570312 0-10.085938 4.515625-10.085938 10.089843 0 5.570313 4.515626 10.089844 10.085938 10.089844h5.160156v39.378906c0 5.570313 4.511719 10.089844 10.082032 10.089844 5.570312 0 10.085937-4.519531 10.085937-10.089844v-39.378906h5.160156c5.566407 0 10.082031-4.519531 10.082031-10.089844 0-5.574218-4.515624-10.089843-10.082031-10.089843h-5.160156v-8.554688c0-5.570312-4.515625-10.089843-10.085937-10.089843zm0 0"/><path d="m384.859375 32.429688c-5.570313 0-10.085937 4.519531-10.085937 10.089843v28.558594h-5.160157c-5.566406 0-10.082031 4.515625-10.082031 10.089844 0 5.570312 4.515625 10.085937 10.082031 10.085937h5.160157v19.378906c0 5.570313 4.515624 10.089844 10.085937 10.089844s10.082031-4.519531 10.082031-10.089844v-19.378906h5.160156c5.570313 0 10.085938-4.515625 10.085938-10.085937 0-5.574219-4.515625-10.089844-10.085938-10.089844h-5.160156v-28.558594c.003906-5.570312-4.511718-10.089843-10.082031-10.089843zm0 0"/><path d="m444.847656 32.429688c-5.570312 0-10.085937 4.519531-10.085937 10.089843v8.554688h-5.160157c-5.570312 0-10.082031 4.515625-10.082031 10.089843 0 5.570313 4.511719 10.089844 10.082031 10.089844h5.160157v39.378906c0 5.570313 4.515625 10.089844 10.085937 10.089844 5.566406 0 10.082032-4.519531 10.082032-10.089844v-39.378906h5.160156c5.570312 0 10.085937-4.519531 10.085937-10.089844 0-5.574218-4.515625-10.089843-10.085937-10.089843h-5.160156v-8.554688c0-5.570312-4.515626-10.089843-10.082032-10.089843zm0 0"/><path d="m475.507812.5h-174.523437c-5.570313 0-10.085937 4.515625-10.085937 10.089844 0 5.570312 4.515624 10.085937 10.085937 10.085937h174.523437c9 0 16.324219 7.308594 16.324219 16.289063v95.539062h-471.660156v-95.539062c0-8.980469 7.320313-16.289063 16.320313-16.289063h174.648437c5.570313 0 10.085937-4.515625 10.085937-10.085937 0-5.574219-4.515624-10.089844-10.085937-10.089844h-174.648437c-20.121094 0-36.492188 16.359375-36.492188 36.464844v264.066406c0 20.109375 16.371094 36.46875 36.492188 36.46875h439.015624c20.121094 0 36.492188-16.359375 36.492188-36.46875v-264.066406c0-20.105469-16.371094-36.464844-36.492188-36.464844zm-60.730468 244.230469v-92.050781h30.980468v92.050781zm-321.839844-92.046875h31.003906v92.050781h-31.003906zm31.199219 112.226562c11.015625 0 19.976562-8.976562 19.976562-20.007812v-92.222656h27.039063v92.222656c0 11.03125 8.957031 20.007812 19.972656 20.007812h5.613281v52.410156h-78.214843v-52.410156zm67.183593-20.179687v-92.050781h30.976563v92.050781zm25.585938 20.179687h5.585938c11.015624 0 19.976562-8.976562 19.976562-20.007812v-92.222656h27.039062v92.222656c0 11.03125 8.96875 20.007812 20 20.007812h5.585938v52.410156h-78.183594v-52.410156zm72.769531-20.179687v-92.050781h31.003907v92.050781zm25.585938 20.179687h5.585937c11.027344 0 20.003906-8.976562 20.003906-20.007812v-92.222656h53.757813v92.222656c0 11.03125 8.960937 20.007812 19.976563 20.007812h5.585937v52.410156h-104.910156zm-295.089844 36.121094v-148.347656h52.597656v92.222656c0 11.027344 8.972657 20.003906 20 20.003906h5.585938v52.414063h-61.863281c-9-.003907-16.320313-7.308594-16.320313-16.292969zm455.335937 16.289062h-35.167968v-52.410156h5.609375c11.015625 0 19.976562-8.976562 19.976562-20.007812v-92.222656h25.90625v148.351562c0 8.984375-7.324219 16.289062-16.324219 16.289062zm0 0"/><path d="m255.984375 20.675781h.199219c5.570312 0 10.085937-4.515625 10.085937-10.085937 0-5.574219-4.515625-10.089844-10.085937-10.089844h-.199219c-5.570313 0-10.082031 4.515625-10.082031 10.089844 0 5.570312 4.511718 10.085937 10.082031 10.085937zm0 0"/><path d="m197.019531 66.488281c-5.570312 0-10.085937 4.515625-10.085937 10.089844 0 5.570313 4.515625 10.085937 10.085937 10.085937h.480469c5.570312 0 10.085938-4.515624 10.085938-10.085937 0-5.574219-4.515626-10.089844-10.085938-10.089844zm0 0"/><path d="m63.640625 44.613281c-8.96875 0-16.261719 7.296875-16.261719 16.265625v31.394532c0 8.96875 7.292969 16.265624 16.261719 16.265624h71.125c8.964844 0 16.261719-7.296874 16.261719-16.265624v-31.394532c0-8.96875-7.296875-16.265625-16.261719-16.265625zm67.214844 43.75h-63.308594v-23.570312h63.308594zm0 0"/></svg>