<svg height="512" viewBox="0 0 64 64" width="512" xmlns="http://www.w3.org/2000/svg"><g id="Filled_outline" data-name="Filled outline"><path d="m14 3h36v58h-36z" fill="#7d8d9c"/><path d="m41 57h-18l-5-5v-17l6-6h17l5 6v17z" fill="#5a6470"/><circle cx="32" cy="43" fill="#fcf05a" r="10"/><circle cx="32" cy="43" fill="#394d5c" r="6"/><circle cx="32" cy="16" fill="#fcf05a" r="9"/><circle cx="32" cy="16" fill="#394d5c" r="5"/><g fill="#cfdfe8"><path d="m45 56h2v2h-2z"/><path d="m17 56h2v2h-2z"/><path d="m17 6h2v2h-2z"/><path d="m45 6h2v2h-2z"/></g><circle cx="20" cy="25" fill="#fcf05a" r="2"/><circle cx="44" cy="25" fill="#fcf05a" r="2"/><path d="m13 62h38v-60h-38zm2-58h34v56h-34z"/><path d="m23.586 28-6.586 6.586v17.828l5.586 5.586h18.828l5.586-5.586v-17.776l-5.531-6.638zm21.414 23.586-4.414 4.414h-17.172l-4.414-4.414v-16.172l5.414-5.414h16.117l4.469 5.362z"/><path d="m32 32a11 11 0 1 0 11 11 11.013 11.013 0 0 0 -11-11zm0 20a9 9 0 1 1 9-9 9.01 9.01 0 0 1 -9 9z"/><path d="m32 36a7 7 0 1 0 7 7 7.009 7.009 0 0 0 -7-7zm0 12a5 5 0 1 1 5-5 5.006 5.006 0 0 1 -5 5z"/><path d="m32 26a10 10 0 1 0 -10-10 10.011 10.011 0 0 0 10 10zm0-18a8 8 0 1 1 -8 8 8.009 8.009 0 0 1 8-8z"/><path d="m32 22a6 6 0 1 0 -6-6 6.006 6.006 0 0 0 6 6zm0-10a4 4 0 1 1 -4 4 4 4 0 0 1 4-4z"/><path d="m45 56h2v2h-2z"/><path d="m17 56h2v2h-2z"/><path d="m17 6h2v2h-2z"/><path d="m45 6h2v2h-2z"/><path d="m20 28a3 3 0 1 0 -3-3 3 3 0 0 0 3 3zm0-4a1 1 0 1 1 -1 1 1 1 0 0 1 1-1z"/><path d="m44 22a3 3 0 1 0 3 3 3 3 0 0 0 -3-3zm0 4a1 1 0 1 1 1-1 1 1 0 0 1 -1 1z"/></g></svg>